<svg width="163" height="57" viewBox="0 0 163 57" fill="none" xmlns="http://www.w3.org/2000/svg">
<g filter="url(#filter0_d_1_661)">
<path d="M12.8445 36L20.4885 16.4H23.9045L31.4925 36H27.7125L23.5125 24.856C23.4192 24.632 23.2885 24.2773 23.1205 23.792C22.9712 23.3067 22.8032 22.784 22.6165 22.224C22.4298 21.6453 22.2618 21.1133 22.1125 20.628C21.9632 20.124 21.8512 19.76 21.7765 19.536L22.4765 19.508C22.3645 19.8813 22.2338 20.3013 22.0845 20.768C21.9352 21.2347 21.7765 21.72 21.6085 22.224C21.4405 22.728 21.2725 23.2133 21.1045 23.68C20.9552 24.1467 20.8152 24.5667 20.6845 24.94L16.4845 36H12.8445ZM16.3165 31.52L17.5765 28.356H26.5085L27.8525 31.52H16.3165ZM33.9913 36V15.28H37.4633V36H33.9913ZM41.5381 36V15.28H45.0101V36H41.5381ZM55.6996 36.28C54.1502 36.28 52.7782 35.9533 51.5836 35.3C50.4076 34.6467 49.4836 33.76 48.8116 32.64C48.1582 31.5013 47.8316 30.204 47.8316 28.748C47.8316 27.5907 48.0182 26.536 48.3916 25.584C48.7649 24.632 49.2782 23.8107 49.9316 23.12C50.6036 22.4107 51.3969 21.8693 52.3116 21.496C53.2449 21.104 54.2622 20.908 55.3636 20.908C56.3342 20.908 57.2396 21.0947 58.0796 21.468C58.9196 21.8413 59.6476 22.3547 60.2636 23.008C60.8796 23.6427 61.3462 24.408 61.6636 25.304C61.9996 26.1813 62.1582 27.1427 62.1396 28.188L62.1116 29.392H50.1556L49.5116 27.04H59.2276L58.7796 27.516V26.9C58.7236 26.3213 58.5369 25.8173 58.2196 25.388C57.9022 24.94 57.4916 24.5947 56.9876 24.352C56.5022 24.0907 55.9609 23.96 55.3636 23.96C54.4489 23.96 53.6742 24.1373 53.0396 24.492C52.4236 24.8467 51.9569 25.36 51.6396 26.032C51.3222 26.6853 51.1636 27.5067 51.1636 28.496C51.1636 29.448 51.3596 30.2787 51.7516 30.988C52.1622 31.6973 52.7316 32.248 53.4596 32.64C54.2062 33.0133 55.0742 33.2 56.0636 33.2C56.7542 33.2 57.3889 33.088 57.9676 32.864C58.5462 32.64 59.1716 32.2387 59.8436 31.66L61.5516 34.04C61.0476 34.5067 60.4689 34.908 59.8156 35.244C59.1809 35.5613 58.5089 35.8133 57.7996 36C57.0902 36.1867 56.3902 36.28 55.6996 36.28ZM71.5178 36.28C70.1365 36.28 68.8952 35.944 67.7938 35.272C66.6925 34.6 65.8245 33.6853 65.1898 32.528C64.5552 31.3707 64.2378 30.064 64.2378 28.608C64.2378 27.152 64.5552 25.8453 65.1898 24.688C65.8245 23.5307 66.6925 22.616 67.7938 21.944C68.8952 21.272 70.1365 20.936 71.5178 20.936C72.8432 20.936 74.0472 21.188 75.1298 21.692C76.2125 22.196 77.0525 22.896 77.6498 23.792L75.7458 26.088C75.4658 25.696 75.1112 25.3413 74.6818 25.024C74.2525 24.7067 73.7952 24.4547 73.3098 24.268C72.8245 24.0813 72.3392 23.988 71.8538 23.988C71.0325 23.988 70.2952 24.1933 69.6418 24.604C69.0072 24.996 68.5032 25.5467 68.1298 26.256C67.7565 26.9467 67.5698 27.7307 67.5698 28.608C67.5698 29.4853 67.7565 30.2693 68.1298 30.96C68.5218 31.6507 69.0445 32.2013 69.6978 32.612C70.3512 33.0227 71.0792 33.228 71.8818 33.228C72.3672 33.228 72.8338 33.1533 73.2818 33.004C73.7485 32.836 74.1872 32.6027 74.5978 32.304C75.0085 32.0053 75.3912 31.632 75.7458 31.184L77.6498 33.508C77.0152 34.3293 76.1378 35.0013 75.0178 35.524C73.9165 36.028 72.7498 36.28 71.5178 36.28Z" fill="#2E36F4" fill-opacity="0.94"/>
<path d="M87.1156 36.28C85.9769 36.28 84.9316 36.14 83.9796 35.86C83.0276 35.5613 82.1689 35.1227 81.4036 34.544C80.6382 33.9653 79.9569 33.2653 79.3596 32.444L81.7396 29.756C82.6542 31.0253 83.5502 31.9027 84.4276 32.388C85.3049 32.8733 86.2942 33.116 87.3956 33.116C88.0302 33.116 88.6089 33.0227 89.1316 32.836C89.6542 32.6307 90.0649 32.36 90.3636 32.024C90.6622 31.6693 90.8116 31.268 90.8116 30.82C90.8116 30.5027 90.7462 30.2133 90.6156 29.952C90.5036 29.672 90.3262 29.4293 90.0836 29.224C89.8409 29 89.5422 28.7947 89.1876 28.608C88.8329 28.4213 88.4316 28.2627 87.9836 28.132C87.5356 28.0013 87.0409 27.88 86.4996 27.768C85.4729 27.5627 84.5769 27.292 83.8116 26.956C83.0462 26.6013 82.4022 26.172 81.8796 25.668C81.3569 25.1453 80.9742 24.5667 80.7316 23.932C80.4889 23.2787 80.3676 22.5413 80.3676 21.72C80.3676 20.8987 80.5449 20.1427 80.8996 19.452C81.2729 18.7613 81.7769 18.164 82.4116 17.66C83.0462 17.156 83.7836 16.764 84.6236 16.484C85.4636 16.204 86.3689 16.064 87.3396 16.064C88.4409 16.064 89.4209 16.1947 90.2796 16.456C91.1569 16.7173 91.9222 17.1093 92.5756 17.632C93.2476 18.136 93.7982 18.752 94.2276 19.48L91.8196 21.86C91.4462 21.2813 91.0262 20.8053 90.5596 20.432C90.0929 20.04 89.5889 19.7507 89.0476 19.564C88.5062 19.3587 87.9369 19.256 87.3396 19.256C86.6676 19.256 86.0796 19.3493 85.5756 19.536C85.0902 19.7227 84.7076 19.9933 84.4276 20.348C84.1476 20.684 84.0076 21.0947 84.0076 21.58C84.0076 21.9533 84.0916 22.2893 84.2596 22.588C84.4276 22.868 84.6609 23.12 84.9596 23.344C85.2769 23.568 85.6782 23.764 86.1636 23.932C86.6489 24.1 87.1996 24.2493 87.8156 24.38C88.8422 24.5853 89.7662 24.8653 90.5876 25.22C91.4089 25.556 92.1089 25.9667 92.6876 26.452C93.2662 26.9187 93.7049 27.46 94.0036 28.076C94.3022 28.6733 94.4516 29.3453 94.4516 30.092C94.4516 31.38 94.1436 32.4907 93.5276 33.424C92.9302 34.3387 92.0809 35.048 90.9796 35.552C89.8782 36.0373 88.5902 36.28 87.1156 36.28ZM99.4343 36V17.492H102.878V36H99.4343ZM96.5223 24.436V21.244H106.098V24.436H96.5223ZM115.332 36.28C113.858 36.28 112.542 35.9533 111.384 35.3C110.227 34.628 109.312 33.7133 108.64 32.556C107.968 31.3987 107.632 30.0827 107.632 28.608C107.632 27.1333 107.968 25.8173 108.64 24.66C109.312 23.5027 110.227 22.5973 111.384 21.944C112.542 21.272 113.858 20.936 115.332 20.936C116.788 20.936 118.095 21.272 119.252 21.944C120.41 22.5973 121.315 23.5027 121.968 24.66C122.64 25.8173 122.976 27.1333 122.976 28.608C122.976 30.0827 122.64 31.3987 121.968 32.556C121.315 33.7133 120.41 34.628 119.252 35.3C118.095 35.9533 116.788 36.28 115.332 36.28ZM115.332 33.228C116.135 33.228 116.844 33.0227 117.46 32.612C118.095 32.2013 118.59 31.6507 118.944 30.96C119.318 30.2693 119.495 29.4853 119.476 28.608C119.495 27.712 119.318 26.9187 118.944 26.228C118.59 25.5373 118.095 24.996 117.46 24.604C116.844 24.1933 116.135 23.988 115.332 23.988C114.53 23.988 113.802 24.1933 113.148 24.604C112.514 24.996 112.019 25.5467 111.664 26.256C111.31 26.9467 111.132 27.7307 111.132 28.608C111.132 29.4853 111.31 30.2693 111.664 30.96C112.019 31.6507 112.514 32.2013 113.148 32.612C113.802 33.0227 114.53 33.228 115.332 33.228ZM126.057 36V21.244H129.445L129.501 25.948L129.025 24.884C129.23 24.1373 129.585 23.4653 130.089 22.868C130.593 22.2707 131.172 21.804 131.825 21.468C132.497 21.1133 133.197 20.936 133.925 20.936C134.242 20.936 134.541 20.964 134.821 21.02C135.12 21.076 135.362 21.1413 135.549 21.216L134.625 24.996C134.42 24.884 134.168 24.7907 133.869 24.716C133.57 24.6413 133.272 24.604 132.973 24.604C132.506 24.604 132.058 24.6973 131.629 24.884C131.218 25.052 130.854 25.2947 130.537 25.612C130.22 25.9293 129.968 26.3027 129.781 26.732C129.613 27.1427 129.529 27.6093 129.529 28.132V36H126.057ZM144.129 36.28C142.58 36.28 141.208 35.9533 140.013 35.3C138.837 34.6467 137.913 33.76 137.241 32.64C136.588 31.5013 136.261 30.204 136.261 28.748C136.261 27.5907 136.448 26.536 136.821 25.584C137.195 24.632 137.708 23.8107 138.361 23.12C139.033 22.4107 139.827 21.8693 140.741 21.496C141.675 21.104 142.692 20.908 143.793 20.908C144.764 20.908 145.669 21.0947 146.509 21.468C147.349 21.8413 148.077 22.3547 148.693 23.008C149.309 23.6427 149.776 24.408 150.093 25.304C150.429 26.1813 150.588 27.1427 150.569 28.188L150.541 29.392H138.585L137.941 27.04H147.657L147.209 27.516V26.9C147.153 26.3213 146.967 25.8173 146.649 25.388C146.332 24.94 145.921 24.5947 145.417 24.352C144.932 24.0907 144.391 23.96 143.793 23.96C142.879 23.96 142.104 24.1373 141.469 24.492C140.853 24.8467 140.387 25.36 140.069 26.032C139.752 26.6853 139.593 27.5067 139.593 28.496C139.593 29.448 139.789 30.2787 140.181 30.988C140.592 31.6973 141.161 32.248 141.889 32.64C142.636 33.0133 143.504 33.2 144.493 33.2C145.184 33.2 145.819 33.088 146.397 32.864C146.976 32.64 147.601 32.2387 148.273 31.66L149.981 34.04C149.477 34.5067 148.899 34.908 148.245 35.244C147.611 35.5613 146.939 35.8133 146.229 36C145.52 36.1867 144.82 36.28 144.129 36.28Z" fill="#F5F4F9"/>
</g>
<defs>
<filter id="filter0_d_1_661" x="-10" y="-4" width="184" height="75" filterUnits="userSpaceOnUse" color-interpolation-filters="sRGB">
<feFlood flood-opacity="0" result="BackgroundImageFix"/>
<feColorMatrix in="SourceAlpha" type="matrix" values="0 0 0 0 0 0 0 0 0 0 0 0 0 0 0 0 0 0 127 0" result="hardAlpha"/>
<feOffset dy="8"/>
<feGaussianBlur stdDeviation="6"/>
<feComposite in2="hardAlpha" operator="out"/>
<feColorMatrix type="matrix" values="0 0 0 0 0.55 0 0 0 0 0.55 0 0 0 0 0.55 0 0 0 0.15 0"/>
<feBlend mode="normal" in2="BackgroundImageFix" result="effect1_dropShadow_1_661"/>
<feBlend mode="normal" in="SourceGraphic" in2="effect1_dropShadow_1_661" result="shape"/>
</filter>
</defs>
</svg>
